<svg width="401" height="501" viewBox="0 0 401 501" fill="none" xmlns="http://www.w3.org/2000/svg">
<path d="M97.1678 492.171H92.3038L91.4078 494.651H89.8717L93.9038 483.563H95.5838L99.5998 494.651H98.0638L97.1678 492.171ZM96.7518 490.987L94.7358 485.355L92.7198 490.987H96.7518ZM108.727 494.795C108.055 494.795 107.452 494.683 106.919 494.459C106.385 494.225 105.964 493.905 105.655 493.499C105.345 493.083 105.175 492.609 105.143 492.075H106.647C106.689 492.513 106.892 492.87 107.255 493.147C107.628 493.425 108.113 493.563 108.711 493.563C109.265 493.563 109.703 493.441 110.023 493.195C110.343 492.95 110.503 492.641 110.503 492.267C110.503 491.883 110.332 491.601 109.991 491.419C109.649 491.227 109.121 491.041 108.407 490.859C107.756 490.689 107.223 490.518 106.807 490.347C106.401 490.166 106.049 489.905 105.751 489.563C105.463 489.211 105.319 488.753 105.319 488.187C105.319 487.739 105.452 487.329 105.719 486.955C105.985 486.582 106.364 486.289 106.855 486.075C107.345 485.851 107.905 485.739 108.535 485.739C109.505 485.739 110.289 485.985 110.887 486.475C111.484 486.966 111.804 487.638 111.847 488.491H110.391C110.359 488.033 110.172 487.665 109.831 487.387C109.5 487.11 109.052 486.971 108.487 486.971C107.964 486.971 107.548 487.083 107.239 487.307C106.929 487.531 106.775 487.825 106.775 488.187C106.775 488.475 106.865 488.715 107.047 488.907C107.239 489.089 107.473 489.238 107.751 489.355C108.039 489.462 108.433 489.585 108.935 489.723C109.564 489.894 110.076 490.065 110.471 490.235C110.865 490.395 111.201 490.641 111.479 490.971C111.767 491.302 111.916 491.734 111.927 492.267C111.927 492.747 111.793 493.179 111.527 493.563C111.26 493.947 110.881 494.251 110.391 494.475C109.911 494.689 109.356 494.795 108.727 494.795ZM113.438 490.235C113.438 489.339 113.619 488.555 113.982 487.883C114.345 487.201 114.841 486.673 115.47 486.299C116.11 485.926 116.819 485.739 117.598 485.739C118.366 485.739 119.033 485.905 119.598 486.235C120.163 486.566 120.585 486.982 120.862 487.483V485.883H122.334V494.651H120.862V493.019C120.574 493.531 120.142 493.958 119.566 494.299C119.001 494.63 118.339 494.795 117.582 494.795C116.803 494.795 116.099 494.603 115.47 494.219C114.841 493.835 114.345 493.297 113.982 492.603C113.619 491.91 113.438 491.121 113.438 490.235ZM120.862 490.251C120.862 489.59 120.729 489.014 120.462 488.523C120.195 488.033 119.833 487.659 119.374 487.403C118.926 487.137 118.43 487.003 117.886 487.003C117.342 487.003 116.846 487.131 116.398 487.387C115.95 487.643 115.593 488.017 115.326 488.507C115.059 488.998 114.926 489.574 114.926 490.235C114.926 490.907 115.059 491.494 115.326 491.995C115.593 492.486 115.95 492.865 116.398 493.131C116.846 493.387 117.342 493.515 117.886 493.515C118.43 493.515 118.926 493.387 119.374 493.131C119.833 492.865 120.195 492.486 120.462 491.995C120.729 491.494 120.862 490.913 120.862 490.251ZM128.363 487.083H126.523V494.651H125.067V487.083H123.931V485.883H125.067V485.259C125.067 484.278 125.317 483.563 125.819 483.115C126.331 482.657 127.147 482.427 128.266 482.427V483.643C127.627 483.643 127.173 483.771 126.907 484.027C126.651 484.273 126.523 484.683 126.523 485.259V485.883H128.363V487.083ZM138.06 489.931C138.06 490.209 138.044 490.502 138.012 490.811H131.004C131.057 491.675 131.351 492.353 131.884 492.843C132.428 493.323 133.084 493.563 133.852 493.563C134.481 493.563 135.004 493.419 135.42 493.131C135.847 492.833 136.145 492.438 136.316 491.947H137.884C137.649 492.79 137.18 493.478 136.476 494.011C135.772 494.534 134.897 494.795 133.852 494.795C133.02 494.795 132.273 494.609 131.612 494.235C130.961 493.862 130.449 493.334 130.076 492.651C129.703 491.958 129.516 491.158 129.516 490.251C129.516 489.345 129.697 488.55 130.06 487.867C130.423 487.185 130.929 486.662 131.58 486.299C132.241 485.926 132.999 485.739 133.852 485.739C134.684 485.739 135.42 485.921 136.06 486.283C136.7 486.646 137.191 487.147 137.532 487.787C137.884 488.417 138.06 489.131 138.06 489.931ZM136.556 489.627C136.556 489.073 136.433 488.598 136.188 488.203C135.943 487.798 135.607 487.494 135.18 487.291C134.764 487.078 134.3 486.971 133.788 486.971C133.052 486.971 132.423 487.206 131.9 487.675C131.388 488.145 131.095 488.795 131.02 489.627H136.556ZM143.704 490.235C143.704 489.339 143.885 488.555 144.248 487.883C144.61 487.201 145.106 486.673 145.736 486.299C146.376 485.926 147.085 485.739 147.864 485.739C148.632 485.739 149.298 485.905 149.864 486.235C150.429 486.566 150.85 486.982 151.128 487.483V485.883H152.6V494.651H151.128V493.019C150.84 493.531 150.408 493.958 149.832 494.299C149.266 494.63 148.605 494.795 147.848 494.795C147.069 494.795 146.365 494.603 145.736 494.219C145.106 493.835 144.61 493.297 144.248 492.603C143.885 491.91 143.704 491.121 143.704 490.235ZM151.128 490.251C151.128 489.59 150.994 489.014 150.728 488.523C150.461 488.033 150.098 487.659 149.64 487.403C149.192 487.137 148.696 487.003 148.152 487.003C147.608 487.003 147.112 487.131 146.664 487.387C146.216 487.643 145.858 488.017 145.592 488.507C145.325 488.998 145.192 489.574 145.192 490.235C145.192 490.907 145.325 491.494 145.592 491.995C145.858 492.486 146.216 492.865 146.664 493.131C147.112 493.387 147.608 493.515 148.152 493.515C148.696 493.515 149.192 493.387 149.64 493.131C150.098 492.865 150.461 492.486 150.728 491.995C150.994 491.494 151.128 490.913 151.128 490.251ZM159.332 485.723C160.399 485.723 161.263 486.049 161.924 486.699C162.585 487.339 162.916 488.267 162.916 489.483V494.651H161.476V489.691C161.476 488.817 161.257 488.15 160.82 487.691C160.383 487.222 159.785 486.987 159.028 486.987C158.26 486.987 157.647 487.227 157.188 487.707C156.74 488.187 156.516 488.886 156.516 489.803V494.651H155.06V485.883H156.516V487.131C156.804 486.683 157.193 486.337 157.684 486.091C158.185 485.846 158.735 485.723 159.332 485.723ZM164.751 490.235C164.751 489.339 164.932 488.555 165.295 487.883C165.657 487.201 166.153 486.673 166.783 486.299C167.423 485.926 168.137 485.739 168.927 485.739C169.609 485.739 170.244 485.899 170.831 486.219C171.417 486.529 171.865 486.939 172.175 487.451V482.811H173.647V494.651H172.175V493.003C171.887 493.526 171.46 493.958 170.895 494.299C170.329 494.63 169.668 494.795 168.911 494.795C168.132 494.795 167.423 494.603 166.783 494.219C166.153 493.835 165.657 493.297 165.295 492.603C164.932 491.91 164.751 491.121 164.751 490.235ZM172.175 490.251C172.175 489.59 172.041 489.014 171.775 488.523C171.508 488.033 171.145 487.659 170.687 487.403C170.239 487.137 169.743 487.003 169.199 487.003C168.655 487.003 168.159 487.131 167.711 487.387C167.263 487.643 166.905 488.017 166.639 488.507C166.372 488.998 166.239 489.574 166.239 490.235C166.239 490.907 166.372 491.494 166.639 491.995C166.905 492.486 167.263 492.865 167.711 493.131C168.159 493.387 168.655 493.515 169.199 493.515C169.743 493.515 170.239 493.387 170.687 493.131C171.145 492.865 171.508 492.486 171.775 491.995C172.041 491.494 172.175 490.913 172.175 490.251ZM183.477 494.795C182.805 494.795 182.202 494.683 181.669 494.459C181.135 494.225 180.714 493.905 180.405 493.499C180.095 493.083 179.925 492.609 179.893 492.075H181.397C181.439 492.513 181.642 492.87 182.005 493.147C182.378 493.425 182.863 493.563 183.461 493.563C184.015 493.563 184.453 493.441 184.773 493.195C185.093 492.95 185.253 492.641 185.253 492.267C185.253 491.883 185.082 491.601 184.741 491.419C184.399 491.227 183.871 491.041 183.157 490.859C182.506 490.689 181.973 490.518 181.557 490.347C181.151 490.166 180.799 489.905 180.501 489.563C180.213 489.211 180.069 488.753 180.069 488.187C180.069 487.739 180.202 487.329 180.469 486.955C180.735 486.582 181.114 486.289 181.605 486.075C182.095 485.851 182.655 485.739 183.285 485.739C184.255 485.739 185.039 485.985 185.637 486.475C186.234 486.966 186.554 487.638 186.597 488.491H185.141C185.109 488.033 184.922 487.665 184.581 487.387C184.25 487.11 183.802 486.971 183.237 486.971C182.714 486.971 182.298 487.083 181.989 487.307C181.679 487.531 181.525 487.825 181.525 488.187C181.525 488.475 181.615 488.715 181.797 488.907C181.989 489.089 182.223 489.238 182.501 489.355C182.789 489.462 183.183 489.585 183.685 489.723C184.314 489.894 184.826 490.065 185.221 490.235C185.615 490.395 185.951 490.641 186.229 490.971C186.517 491.302 186.666 491.734 186.677 492.267C186.677 492.747 186.543 493.179 186.277 493.563C186.01 493.947 185.631 494.251 185.141 494.475C184.661 494.689 184.106 494.795 183.477 494.795ZM199.276 485.723C199.959 485.723 200.567 485.867 201.1 486.155C201.633 486.433 202.055 486.854 202.364 487.419C202.673 487.985 202.828 488.673 202.828 489.483V494.651H201.388V489.691C201.388 488.817 201.169 488.15 200.732 487.691C200.305 487.222 199.724 486.987 198.988 486.987C198.231 486.987 197.628 487.233 197.18 487.723C196.732 488.203 196.508 488.902 196.508 489.819V494.651H195.068V489.691C195.068 488.817 194.849 488.15 194.412 487.691C193.985 487.222 193.404 486.987 192.668 486.987C191.911 486.987 191.308 487.233 190.86 487.723C190.412 488.203 190.188 488.902 190.188 489.819V494.651H188.732V485.883H190.188V487.147C190.476 486.689 190.86 486.337 191.34 486.091C191.831 485.846 192.369 485.723 192.956 485.723C193.692 485.723 194.343 485.889 194.908 486.219C195.473 486.55 195.895 487.035 196.172 487.675C196.417 487.057 196.823 486.577 197.388 486.235C197.953 485.894 198.583 485.723 199.276 485.723ZM204.672 490.235C204.672 489.339 204.854 488.555 205.216 487.883C205.579 487.201 206.075 486.673 206.704 486.299C207.344 485.926 208.054 485.739 208.832 485.739C209.6 485.739 210.267 485.905 210.832 486.235C211.398 486.566 211.819 486.982 212.096 487.483V485.883H213.568V494.651H212.096V493.019C211.808 493.531 211.376 493.958 210.8 494.299C210.235 494.63 209.574 494.795 208.816 494.795C208.038 494.795 207.334 494.603 206.704 494.219C206.075 493.835 205.579 493.297 205.216 492.603C204.854 491.91 204.672 491.121 204.672 490.235ZM212.096 490.251C212.096 489.59 211.963 489.014 211.696 488.523C211.43 488.033 211.067 487.659 210.608 487.403C210.16 487.137 209.664 487.003 209.12 487.003C208.576 487.003 208.08 487.131 207.632 487.387C207.184 487.643 206.827 488.017 206.56 488.507C206.294 488.998 206.16 489.574 206.16 490.235C206.16 490.907 206.294 491.494 206.56 491.995C206.827 492.486 207.184 492.865 207.632 493.131C208.08 493.387 208.576 493.515 209.12 493.515C209.664 493.515 210.16 493.387 210.608 493.131C211.067 492.865 211.43 492.486 211.696 491.995C211.963 491.494 212.096 490.913 212.096 490.251ZM217.485 487.307C217.741 486.806 218.104 486.417 218.573 486.139C219.053 485.862 219.634 485.723 220.317 485.723V487.227H219.933C218.301 487.227 217.485 488.113 217.485 489.883V494.651H216.029V485.883H217.485V487.307ZM223.774 487.083V492.251C223.774 492.678 223.864 492.982 224.046 493.163C224.227 493.334 224.542 493.419 224.99 493.419H226.062V494.651H224.75C223.939 494.651 223.331 494.465 222.926 494.091C222.52 493.718 222.318 493.105 222.318 492.251V487.083H221.182V485.883H222.318V483.675H223.774V485.883H226.062V487.083H223.774ZM243.771 485.883L241.035 494.651H239.531L237.419 487.691L235.307 494.651H233.803L231.051 485.883H232.539L234.555 493.243L236.731 485.883H238.219L240.347 493.259L242.331 485.883H243.771ZM244.672 490.235C244.672 489.339 244.854 488.555 245.216 487.883C245.579 487.201 246.075 486.673 246.704 486.299C247.344 485.926 248.054 485.739 248.832 485.739C249.6 485.739 250.267 485.905 250.832 486.235C251.398 486.566 251.819 486.982 252.096 487.483V485.883H253.568V494.651H252.096V493.019C251.808 493.531 251.376 493.958 250.8 494.299C250.235 494.63 249.574 494.795 248.816 494.795C248.038 494.795 247.334 494.603 246.704 494.219C246.075 493.835 245.579 493.297 245.216 492.603C244.854 491.91 244.672 491.121 244.672 490.235ZM252.096 490.251C252.096 489.59 251.963 489.014 251.696 488.523C251.43 488.033 251.067 487.659 250.608 487.403C250.16 487.137 249.664 487.003 249.12 487.003C248.576 487.003 248.08 487.131 247.632 487.387C247.184 487.643 246.827 488.017 246.56 488.507C246.294 488.998 246.16 489.574 246.16 490.235C246.16 490.907 246.294 491.494 246.56 491.995C246.827 492.486 247.184 492.865 247.632 493.131C248.08 493.387 248.576 493.515 249.12 493.515C249.664 493.515 250.16 493.387 250.608 493.131C251.067 492.865 251.43 492.486 251.696 491.995C251.963 491.494 252.096 490.913 252.096 490.251ZM263.581 485.883L258.301 498.779H256.797L258.525 494.555L254.989 485.883H256.605L259.357 492.987L262.077 485.883H263.581ZM271.086 487.083V492.251C271.086 492.678 271.177 492.982 271.358 493.163C271.539 493.334 271.854 493.419 272.302 493.419H273.374V494.651H272.062C271.251 494.651 270.643 494.465 270.238 494.091C269.833 493.718 269.63 493.105 269.63 492.251V487.083H268.494V485.883H269.63V483.675H271.086V485.883H273.374V487.083H271.086ZM278.962 494.795C278.141 494.795 277.394 494.609 276.722 494.235C276.061 493.862 275.538 493.334 275.154 492.651C274.781 491.958 274.594 491.158 274.594 490.251C274.594 489.355 274.786 488.566 275.17 487.883C275.565 487.19 276.098 486.662 276.77 486.299C277.442 485.926 278.194 485.739 279.026 485.739C279.858 485.739 280.61 485.926 281.282 486.299C281.954 486.662 282.482 487.185 282.866 487.867C283.261 488.55 283.458 489.345 283.458 490.251C283.458 491.158 283.256 491.958 282.85 492.651C282.456 493.334 281.917 493.862 281.234 494.235C280.552 494.609 279.794 494.795 278.962 494.795ZM278.962 493.515C279.485 493.515 279.976 493.393 280.434 493.147C280.893 492.902 281.261 492.534 281.538 492.043C281.826 491.553 281.97 490.955 281.97 490.251C281.97 489.547 281.832 488.95 281.554 488.459C281.277 487.969 280.914 487.606 280.466 487.371C280.018 487.126 279.533 487.003 279.01 487.003C278.477 487.003 277.986 487.126 277.538 487.371C277.101 487.606 276.749 487.969 276.482 488.459C276.216 488.95 276.082 489.547 276.082 490.251C276.082 490.966 276.21 491.569 276.466 492.059C276.733 492.55 277.085 492.918 277.522 493.163C277.96 493.398 278.44 493.515 278.962 493.515ZM290.102 494.747C289.825 494.747 289.59 494.651 289.398 494.459C289.206 494.267 289.11 494.033 289.11 493.755C289.11 493.478 289.206 493.243 289.398 493.051C289.59 492.859 289.825 492.763 290.102 492.763C290.369 492.763 290.593 492.859 290.774 493.051C290.966 493.243 291.062 493.478 291.062 493.755C291.062 494.033 290.966 494.267 290.774 494.459C290.593 494.651 290.369 494.747 290.102 494.747ZM300.998 489.931C300.998 490.209 300.982 490.502 300.95 490.811H293.942C293.995 491.675 294.288 492.353 294.822 492.843C295.366 493.323 296.022 493.563 296.79 493.563C297.419 493.563 297.942 493.419 298.358 493.131C298.784 492.833 299.083 492.438 299.254 491.947H300.822C300.587 492.79 300.118 493.478 299.414 494.011C298.71 494.534 297.835 494.795 296.79 494.795C295.958 494.795 295.211 494.609 294.55 494.235C293.899 493.862 293.387 493.334 293.014 492.651C292.64 491.958 292.454 491.158 292.454 490.251C292.454 489.345 292.635 488.55 292.998 487.867C293.36 487.185 293.867 486.662 294.518 486.299C295.179 485.926 295.936 485.739 296.79 485.739C297.622 485.739 298.358 485.921 298.998 486.283C299.638 486.646 300.128 487.147 300.47 487.787C300.822 488.417 300.998 489.131 300.998 489.931ZM299.494 489.627C299.494 489.073 299.371 488.598 299.126 488.203C298.88 487.798 298.544 487.494 298.118 487.291C297.702 487.078 297.238 486.971 296.726 486.971C295.99 486.971 295.36 487.206 294.838 487.675C294.326 488.145 294.032 488.795 293.958 489.627H299.494ZM307.192 485.723C308.258 485.723 309.122 486.049 309.784 486.699C310.445 487.339 310.776 488.267 310.776 489.483V494.651H309.336V489.691C309.336 488.817 309.117 488.15 308.68 487.691C308.242 487.222 307.645 486.987 306.888 486.987C306.12 486.987 305.506 487.227 305.048 487.707C304.6 488.187 304.376 488.886 304.376 489.803V494.651H302.92V485.883H304.376V487.131C304.664 486.683 305.053 486.337 305.544 486.091C306.045 485.846 306.594 485.723 307.192 485.723ZM316.418 493.307L319.138 485.883H320.69L317.25 494.651H315.554L312.114 485.883H313.682L316.418 493.307ZM324.011 483.499L323.835 491.499H322.619L322.443 483.499H324.011ZM323.291 494.747C323.013 494.747 322.779 494.651 322.587 494.459C322.395 494.267 322.299 494.033 322.299 493.755C322.299 493.478 322.395 493.243 322.587 493.051C322.779 492.859 323.013 492.763 323.291 492.763C323.557 492.763 323.781 492.859 323.963 493.051C324.155 493.243 324.251 493.478 324.251 493.755C324.251 494.033 324.155 494.267 323.963 494.459C323.781 494.651 323.557 494.747 323.291 494.747Z" fill="#262626"/>
<path d="M103.25 432.551C106.95 432.551 110.183 433.285 112.95 434.751C115.717 436.218 117.85 438.285 119.35 440.951C120.883 443.585 121.65 446.635 121.65 450.101C121.65 453.535 120.883 456.585 119.35 459.251C117.85 461.918 115.7 463.985 112.9 465.451C110.133 466.918 106.917 467.651 103.25 467.651H90.1V432.551H103.25ZM102.7 460.251C105.933 460.251 108.45 459.368 110.25 457.601C112.05 455.835 112.95 453.335 112.95 450.101C112.95 446.868 112.05 444.351 110.25 442.551C108.45 440.751 105.933 439.851 102.7 439.851H98.65V460.251H102.7ZM139.128 468.051C136.395 468.051 133.928 467.468 131.728 466.301C129.561 465.135 127.845 463.468 126.578 461.301C125.345 459.135 124.728 456.601 124.728 453.701C124.728 450.835 125.361 448.318 126.628 446.151C127.895 443.951 129.628 442.268 131.828 441.101C134.028 439.935 136.495 439.351 139.228 439.351C141.961 439.351 144.428 439.935 146.628 441.101C148.828 442.268 150.561 443.951 151.828 446.151C153.095 448.318 153.728 450.835 153.728 453.701C153.728 456.568 153.078 459.101 151.778 461.301C150.511 463.468 148.761 465.135 146.528 466.301C144.328 467.468 141.861 468.051 139.128 468.051ZM139.128 460.651C140.761 460.651 142.145 460.051 143.278 458.851C144.445 457.651 145.028 455.935 145.028 453.701C145.028 451.468 144.461 449.751 143.328 448.551C142.228 447.351 140.861 446.751 139.228 446.751C137.561 446.751 136.178 447.351 135.078 448.551C133.978 449.718 133.428 451.435 133.428 453.701C133.428 455.935 133.961 457.651 135.028 458.851C136.128 460.051 137.495 460.651 139.128 460.651ZM173.814 460.401V467.651H169.464C166.364 467.651 163.947 466.901 162.214 465.401C160.481 463.868 159.614 461.385 159.614 457.951V446.851H156.214V439.751H159.614V432.951H168.164V439.751H173.764V446.851H168.164V458.051C168.164 458.885 168.364 459.485 168.764 459.851C169.164 460.218 169.831 460.401 170.764 460.401H173.814Z" fill="#272727"/>
<path d="M177.127 450.051C177.127 446.585 177.877 443.501 179.377 440.801C180.877 438.068 182.96 435.951 185.627 434.451C188.327 432.918 191.377 432.151 194.777 432.151C198.943 432.151 202.51 433.251 205.477 435.451C208.443 437.651 210.427 440.651 211.427 444.451H202.027C201.327 442.985 200.327 441.868 199.027 441.101C197.76 440.335 196.31 439.951 194.677 439.951C192.043 439.951 189.91 440.868 188.277 442.701C186.643 444.535 185.827 446.985 185.827 450.051C185.827 453.118 186.643 455.568 188.277 457.401C189.91 459.235 192.043 460.151 194.677 460.151C196.31 460.151 197.76 459.768 199.027 459.001C200.327 458.235 201.327 457.118 202.027 455.651H211.427C210.427 459.451 208.443 462.451 205.477 464.651C202.51 466.818 198.943 467.901 194.777 467.901C191.377 467.901 188.327 467.151 185.627 465.651C182.96 464.118 180.877 462.001 179.377 459.301C177.877 456.601 177.127 453.518 177.127 450.051ZM225.213 430.651V467.651H216.663V430.651H225.213ZM244.109 468.051C241.375 468.051 238.909 467.468 236.709 466.301C234.542 465.135 232.825 463.468 231.559 461.301C230.325 459.135 229.709 456.601 229.709 453.701C229.709 450.835 230.342 448.318 231.609 446.151C232.875 443.951 234.609 442.268 236.809 441.101C239.009 439.935 241.475 439.351 244.209 439.351C246.942 439.351 249.409 439.935 251.609 441.101C253.809 442.268 255.542 443.951 256.809 446.151C258.075 448.318 258.709 450.835 258.709 453.701C258.709 456.568 258.059 459.101 256.759 461.301C255.492 463.468 253.742 465.135 251.509 466.301C249.309 467.468 246.842 468.051 244.109 468.051ZM244.109 460.651C245.742 460.651 247.125 460.051 248.259 458.851C249.425 457.651 250.009 455.935 250.009 453.701C250.009 451.468 249.442 449.751 248.309 448.551C247.209 447.351 245.842 446.751 244.209 446.751C242.542 446.751 241.159 447.351 240.059 448.551C238.959 449.718 238.409 451.435 238.409 453.701C238.409 455.935 238.942 457.651 240.009 458.851C241.109 460.051 242.475 460.651 244.109 460.651ZM290.795 439.751V467.651H282.245V463.851C281.378 465.085 280.195 466.085 278.695 466.851C277.228 467.585 275.595 467.951 273.795 467.951C271.661 467.951 269.778 467.485 268.145 466.551C266.511 465.585 265.245 464.201 264.345 462.401C263.445 460.601 262.995 458.485 262.995 456.051V439.751H271.495V454.901C271.495 456.768 271.978 458.218 272.945 459.251C273.911 460.285 275.211 460.801 276.845 460.801C278.511 460.801 279.828 460.285 280.795 459.251C281.761 458.218 282.245 456.768 282.245 454.901V439.751H290.795ZM295.236 453.651C295.236 450.785 295.769 448.268 296.836 446.101C297.936 443.935 299.419 442.268 301.286 441.101C303.153 439.935 305.236 439.351 307.536 439.351C309.369 439.351 311.036 439.735 312.536 440.501C314.069 441.268 315.269 442.301 316.136 443.601V430.651H324.686V467.651H316.136V463.651C315.336 464.985 314.186 466.051 312.686 466.851C311.219 467.651 309.503 468.051 307.536 468.051C305.236 468.051 303.153 467.468 301.286 466.301C299.419 465.101 297.936 463.418 296.836 461.251C295.769 459.051 295.236 456.518 295.236 453.651ZM316.136 453.701C316.136 451.568 315.536 449.885 314.336 448.651C313.169 447.418 311.736 446.801 310.036 446.801C308.336 446.801 306.886 447.418 305.686 448.651C304.519 449.851 303.936 451.518 303.936 453.651C303.936 455.785 304.519 457.485 305.686 458.751C306.886 459.985 308.336 460.601 310.036 460.601C311.736 460.601 313.169 459.985 314.336 458.751C315.536 457.518 316.136 455.835 316.136 453.701Z" fill="url(#paint0_linear)"/>
<g filter="url(#filter0_dd)">
<path d="M322.791 381.633L91.1011 381.625C65.7869 381.625 45.0649 370.862 45.0649 357.714L45 63.9105C45 50.7543 65.722 40 91.0362 40L322.726 40.0084C348.04 40.0084 368.762 50.7711 368.762 63.9189L368.827 357.722C368.827 370.879 348.122 381.633 322.791 381.633Z" fill="#F9F9F9"/>
</g>
<g filter="url(#filter1_d)">
<rect x="141.728" y="146.438" width="129.545" height="128.756" rx="32" fill="url(#paint1_linear)"/>
</g>
<g filter="url(#filter2_d)">
<g filter="url(#filter3_d)">
<path d="M237.074 197.414C232.473 185.28 220.751 176.651 207.02 176.651C193.289 176.651 181.567 185.27 176.967 197.404C168.358 199.664 162 207.498 162 216.83C162 227.929 170.99 236.919 182.079 236.919H231.921C243.01 236.919 252 227.929 252 216.83C252 207.519 245.662 199.684 237.074 197.414Z" fill="#262626"/>
</g>
</g>
<g filter="url(#filter4_d)">
<path d="M215.227 217.155C215.388 216.995 222 211.243 222 211.243L220.873 210.763C220.23 210.449 220.397 210.027 220.552 209.65C220.706 209.163 221.845 205.343 221.845 205.343C221.845 205.343 218.775 205.983 218.131 206.143C217.648 206.297 217.487 205.983 217.326 205.663C217.165 205.343 216.361 203.59 216.361 203.59C216.361 203.59 212.974 207.423 212.813 207.576C212.17 208.056 211.519 207.576 211.68 206.937C211.68 206.297 213.457 198.644 213.457 198.644C213.457 198.644 211.519 199.757 210.876 200.077C210.393 200.397 210.064 200.397 209.742 199.757C209.414 199.278 206.994 194.651 206.994 194.651C206.994 194.651 204.579 199.278 204.258 199.757C203.936 200.397 203.614 200.397 203.124 200.077C202.481 199.757 200.543 198.644 200.543 198.644C200.543 198.644 202.32 206.297 202.32 206.937C202.481 207.576 201.837 208.056 201.187 207.576C201.026 207.416 197.639 203.59 197.639 203.59C197.639 203.59 196.835 205.337 196.674 205.657C196.513 205.977 196.352 206.29 195.869 206.137C195.219 205.977 192.155 205.337 192.155 205.337C192.155 205.337 193.288 209.157 193.448 209.643C193.603 210.027 193.77 210.443 193.127 210.757L192 211.243C192 211.243 198.605 216.995 198.773 217.155C199.101 217.475 199.416 217.635 199.101 218.595C198.773 219.555 198.451 220.841 198.451 220.841C198.451 220.841 204.579 219.555 205.23 219.395C205.79 219.337 206.408 219.555 206.408 220.194C206.408 220.834 206.034 227.412 206.034 227.412H207.966C207.966 227.412 207.592 220.841 207.592 220.194C207.592 219.548 208.204 219.337 208.777 219.395C209.421 219.555 215.549 220.841 215.549 220.841C215.549 220.841 215.227 219.555 214.906 218.595C214.584 217.635 214.906 217.475 215.227 217.155Z" fill="url(#paint2_linear)"/>
</g>
<defs>
<filter id="filter0_dd" x="0" y="0" width="400.827" height="426.633" filterUnits="userSpaceOnUse" color-interpolation-filters="sRGB">
<feFlood flood-opacity="0" result="BackgroundImageFix"/>
<feColorMatrix in="SourceAlpha" type="matrix" values="0 0 0 0 0 0 0 0 0 0 0 0 0 0 0 0 0 0 127 0"/>
<feOffset dx="2" dy="15"/>
<feGaussianBlur stdDeviation="15"/>
<feColorMatrix type="matrix" values="0 0 0 0 0.841667 0 0 0 0 0.841667 0 0 0 0 0.841667 0 0 0 1 0"/>
<feBlend mode="normal" in2="BackgroundImageFix" result="effect1_dropShadow"/>
<feColorMatrix in="SourceAlpha" type="matrix" values="0 0 0 0 0 0 0 0 0 0 0 0 0 0 0 0 0 0 127 0"/>
<feOffset dx="-15" dy="-10"/>
<feGaussianBlur stdDeviation="15"/>
<feColorMatrix type="matrix" values="0 0 0 0 1 0 0 0 0 1 0 0 0 0 1 0 0 0 1 0"/>
<feBlend mode="normal" in2="effect1_dropShadow" result="effect2_dropShadow"/>
<feBlend mode="normal" in="SourceGraphic" in2="effect2_dropShadow" result="shape"/>
</filter>
<filter id="filter1_d" x="137.728" y="146.438" width="137.545" height="136.756" filterUnits="userSpaceOnUse" color-interpolation-filters="sRGB">
<feFlood flood-opacity="0" result="BackgroundImageFix"/>
<feColorMatrix in="SourceAlpha" type="matrix" values="0 0 0 0 0 0 0 0 0 0 0 0 0 0 0 0 0 0 127 0"/>
<feOffset dy="4"/>
<feGaussianBlur stdDeviation="2"/>
<feColorMatrix type="matrix" values="0 0 0 0 0 0 0 0 0 0 0 0 0 0 0 0 0 0 0.25 0"/>
<feBlend mode="normal" in2="BackgroundImageFix" result="effect1_dropShadow"/>
<feBlend mode="normal" in="SourceGraphic" in2="effect1_dropShadow" result="shape"/>
</filter>
<filter id="filter2_d" x="138" y="135.651" width="138" height="138" filterUnits="userSpaceOnUse" color-interpolation-filters="sRGB">
<feFlood flood-opacity="0" result="BackgroundImageFix"/>
<feColorMatrix in="SourceAlpha" type="matrix" values="0 0 0 0 0 0 0 0 0 0 0 0 0 0 0 0 0 0 127 0"/>
<feOffset dy="4"/>
<feGaussianBlur stdDeviation="2"/>
<feColorMatrix type="matrix" values="0 0 0 0 0 0 0 0 0 0 0 0 0 0 0 0 0 0 0.25 0"/>
<feBlend mode="normal" in2="BackgroundImageFix" result="effect1_dropShadow"/>
<feBlend mode="normal" in="SourceGraphic" in2="effect1_dropShadow" result="shape"/>
</filter>
<filter id="filter3_d" x="158" y="176.651" width="98" height="68.2678" filterUnits="userSpaceOnUse" color-interpolation-filters="sRGB">
<feFlood flood-opacity="0" result="BackgroundImageFix"/>
<feColorMatrix in="SourceAlpha" type="matrix" values="0 0 0 0 0 0 0 0 0 0 0 0 0 0 0 0 0 0 127 0"/>
<feOffset dy="4"/>
<feGaussianBlur stdDeviation="2"/>
<feColorMatrix type="matrix" values="0 0 0 0 0 0 0 0 0 0 0 0 0 0 0 0 0 0 0.25 0"/>
<feBlend mode="normal" in2="BackgroundImageFix" result="effect1_dropShadow"/>
<feBlend mode="normal" in="SourceGraphic" in2="effect1_dropShadow" result="shape"/>
</filter>
<filter id="filter4_d" x="188" y="194.651" width="38" height="43.7605" filterUnits="userSpaceOnUse" color-interpolation-filters="sRGB">
<feFlood flood-opacity="0" result="BackgroundImageFix"/>
<feColorMatrix in="SourceAlpha" type="matrix" values="0 0 0 0 0 0 0 0 0 0 0 0 0 0 0 0 0 0 127 0"/>
<feOffset dy="7"/>
<feGaussianBlur stdDeviation="2"/>
<feColorMatrix type="matrix" values="0 0 0 0 0 0 0 0 0 0 0 0 0 0 0 0 0 0 0.25 0"/>
<feBlend mode="normal" in2="BackgroundImageFix" result="effect1_dropShadow"/>
<feBlend mode="normal" in="SourceGraphic" in2="effect1_dropShadow" result="shape"/>
</filter>
<linearGradient id="paint0_linear" x1="237.887" y1="410.368" x2="234.755" y2="480.936" gradientUnits="userSpaceOnUse">
<stop stop-color="#2AED26"/>
<stop offset="1" stop-color="#3166EF"/>
</linearGradient>
<linearGradient id="paint1_linear" x1="218.683" y1="141.844" x2="194.522" y2="279.864" gradientUnits="userSpaceOnUse">
<stop stop-color="#2AED26"/>
<stop offset="1" stop-color="#3166EF"/>
</linearGradient>
<linearGradient id="paint2_linear" x1="209.821" y1="193.482" x2="203.108" y2="228.385" gradientUnits="userSpaceOnUse">
<stop stop-color="#2AED26"/>
<stop offset="1" stop-color="#3166EF"/>
</linearGradient>
</defs>
</svg>
